<?xml version="1.0" encoding="UTF-8" standalone="no"?>
<!-- Created with Inkscape (http://www.inkscape.org/) -->

<svg
   width="97.499992mm"
   height="56.497055mm"
   viewBox="0 0 97.499992 56.497055"
   version="1.1"
   id="svg1"
   xmlns:xlink="http://www.w3.org/1999/xlink"
   xmlns="http://www.w3.org/2000/svg"
   xmlns:svg="http://www.w3.org/2000/svg">
  <defs
     id="defs1">
    <linearGradient
       xlink:href="#linearGradient20"
       id="linearGradient17"
       gradientUnits="userSpaceOnUse"
       gradientTransform="translate(13.261847,-62.944873)"
       x1="116.40834"
       y1="128.34016"
       x2="97.253143"
       y2="174.67014" />
    <linearGradient
       id="linearGradient20">
      <stop
         style="stop-color:#3999ef;stop-opacity:1;"
         offset="0"
         id="stop19" />
      <stop
         style="stop-color:#9f46f5;stop-opacity:1;"
         offset="1"
         id="stop20" />
    </linearGradient>
    <linearGradient
       xlink:href="#linearGradient18"
       id="linearGradient10"
       gradientUnits="userSpaceOnUse"
       x1="95.530525"
       y1="137.93761"
       x2="79.01783"
       y2="169.45323"
       gradientTransform="translate(13.261847,-62.944873)" />
    <linearGradient
       id="linearGradient18">
      <stop
         style="stop-color:#3797ef;stop-opacity:1;"
         offset="0"
         id="stop17" />
      <stop
         style="stop-color:#a752f6;stop-opacity:1;"
         offset="1"
         id="stop18" />
    </linearGradient>
    <linearGradient
       xlink:href="#linearGradient20"
       id="linearGradient8"
       gradientUnits="userSpaceOnUse"
       gradientTransform="matrix(0.18244878,0,0,0.18244878,40.760899,54.25551)"
       x1="339.06979"
       y1="42.997372"
       x2="51.911629"
       y2="335.90811" />
  </defs>
  <g
     id="layer1"
     transform="translate(-49.506051,-59.362261)">
    <rect
       fill="#1183ff"
       x="84.084351"
       y="64.003372"
       transform="rotate(-0.1)"
       width="2.718487"
       height="2.714838"
       rx="0.078452982"
       id="rect4-3"
       style="fill:#517bfa;fill-opacity:1;stroke-width:0.182449" />
    <path
       style="-inkscape-font-specification:Squaremaze;fill:url(#linearGradient17);stroke-width:2.15538"
       d="m 124.37461,99.30653 h -3.23307 l -9.69916,-11.13891 v 11.13891 h -3.23306 V 83.14122 h 3.2078 l 9.72442,11.44201 V 78.29162 h 8.08266 v 3.23307 h -4.84959 z m 4.84959,0 h -3.23306 V 83.14122 h 3.23306 z m 10.65901,-12.02295 3.08151,-4.14236 h 4.04133 l -5.12744,6.71871 z m 7.12284,12.02295 h -4.04133 l -4.04133,-5.40528 -4.04133,5.40528 h -4.04132 l 6.08725,-8.08266 -6.08725,-8.08265 h 4.04132 z"
       id="text1-2"
       aria-label="enix" />
    <path
       d="m 96.814817,89.61542 h 9.144513 v 3.21959 h -9.144513 z m -2.210075,6.43918 h 11.354588 v 3.2196 H 91.385151 V 83.17622 h 14.574179 v 3.2196 H 94.604742 Z"
       style="-inkscape-font-specification:Squaremaze;fill:url(#linearGradient10);stroke-width:8.11236"
       id="path1-4-0" />
    <path
       fill="#1183ff"
       d="m 69.062354,107.35905 q -0.884876,-0.0639 -1.842732,-0.14778 C 56.825515,106.30815 49.129825,97.10726 49.520265,86.86823 c 0.299216,-7.87449 5.254525,-14.80754 12.63093,-17.67746 1.313631,-0.51086 2.77687,-0.7973 4.199971,-1.05456 q 1.397557,-0.25177 2.802413,-0.26272 a 0.06750605,0.06933054 0 0 0 0.06751,-0.0693 l -0.0055,-8.36893 q 0,-0.073 0.07298,-0.073 l 8.330612,0.007 a 0.1350121,0.1350121 0 0 1 0.135012,0.13501 l 0.0018,8.20655 a 0.17879981,0.1806243 0 0 0 0.178799,0.18062 l 4.845839,0.005 q 0.0967,0 0.0967,0.0985 l -0.0073,4.96078 a 0.10034683,0.09852234 0 0 1 -0.100346,0.0985 l -4.931591,-0.002 a 0.10399581,0.10217132 0 0 1 -0.103996,-0.10218 l 0.0073,-4.86226 q 0,-0.16237 -0.160555,-0.16237 h -8.239382 a 0.07845298,0.07662849 0 0 0 -0.07845,0.0766 l -0.0018,8.36711 a 0.08939991,0.08939991 0 0 1 -0.08758,0.0894 c -6.673977,0.0985 -11.798963,5.78727 -11.030854,12.50503 0.64222,5.6103 5.409607,9.68256 10.998013,9.82305 a 0.12771415,0.12771415 0 0 1 0.124065,0.12771 l -0.0018,8.25763 a 0.14413454,0.14413454 0 0 0 0.147784,0.14414 c 5.486235,-0.14049 9.943458,-4.05401 10.864824,-9.45632 0.295569,-1.72779 0.156906,-3.94455 0.135012,-5.88398 q -0.0019,-0.0547 -0.05474,-0.0547 l -11.032677,-0.0146 q -0.103995,0 -0.103995,-0.10399 l -0.0055,-8.39991 q 0,-0.0511 0.05291,-0.0511 l 19.620543,0.004 a 0.08210195,0.08210195 0 0 1 0.0821,0.0821 q -0.0037,6.15035 0,12.32441 0.0019,5.86755 -2.866271,10.61305 c -3.513963,5.81463 -9.941633,9.53842 -16.81083,9.48368 a 0.07115502,0.07115502 0 0 1 -0.07115,-0.073 l 0.0018,-8.25581 a 0.17150186,0.17150186 0 0 0 -0.160555,-0.1715 z"
       id="path4-6"
       style="fill:url(#linearGradient8);stroke-width:0.182449" />
  </g>
</svg>
