<?xml version="1.0" encoding="UTF-8" standalone="no"?>
<!-- Generator: Adobe Illustrator 22.0.1, SVG Export Plug-In . SVG Version: 6.00 Build 0)  -->

<svg
   version="1.1"
   id="_x35_0"
   x="0px"
   y="0px"
   viewBox="0 0 374.625 338.54297"
   xml:space="preserve"
   sodipodi:docname="icon_cart.svg"
   inkscape:version="1.4 (e7c3feb100, 2024-10-09)"
   width="374.625"
   height="338.54297"
   xmlns:inkscape="http://www.inkscape.org/namespaces/inkscape"
   xmlns:sodipodi="http://sodipodi.sourceforge.net/DTD/sodipodi-0.dtd"
   xmlns:xlink="http://www.w3.org/1999/xlink"
   xmlns="http://www.w3.org/2000/svg"
   xmlns:svg="http://www.w3.org/2000/svg"><defs
   id="defs9"><linearGradient
     id="linearGradient15"
     inkscape:collect="always"><stop
       style="stop-color:#6568eb;stop-opacity:1;"
       offset="0"
       id="stop15" /><stop
       style="stop-color:#7139e9;stop-opacity:1;"
       offset="0.50012738"
       id="stop17" /><stop
       style="stop-color:#9416e9;stop-opacity:1;"
       offset="1"
       id="stop16" /></linearGradient><linearGradient
     inkscape:collect="always"
     xlink:href="#linearGradient15"
     id="linearGradient16"
     x1="112.51031"
     y1="135.43776"
     x2="399.48965"
     y2="376.24203"
     gradientUnits="userSpaceOnUse" /></defs><sodipodi:namedview
   id="namedview9"
   pagecolor="#ffffff"
   bordercolor="#000000"
   borderopacity="0.25"
   inkscape:showpageshadow="2"
   inkscape:pageopacity="0.0"
   inkscape:pagecheckerboard="0"
   inkscape:deskcolor="#d1d1d1"
   inkscape:zoom="0.78027344"
   inkscape:cx="18.583229"
   inkscape:cy="254.398"
   inkscape:window-width="1920"
   inkscape:window-height="1008"
   inkscape:window-x="0"
   inkscape:window-y="0"
   inkscape:window-maximized="1"
   inkscape:current-layer="path9" />
<linearGradient
   id="SVGID_1_"
   gradientUnits="userSpaceOnUse"
   x1="24.6903"
   y1="10.2765"
   x2="482.35349"
   y2="460.4465">
	
	
	
	
	
	
	<stop
   offset="0"
   style="stop-color:#5287dc;stop-opacity:1;"
   id="stop7" />
	<stop
   offset="0.45566216"
   style="stop-color:#8255d3;stop-opacity:1;"
   id="stop8" />
	<stop
   offset="1"
   style="stop-color:#a835c3;stop-opacity:1;"
   id="stop9" />
</linearGradient>
<g
   id="path9"
   transform="translate(-68.6875,-86.568359)"><path
     id="path10"
     style="fill:url(#linearGradient16)"
     d="m 414.74609,86.568359 c -3.04782,-2.1e-5 -6.09573,1.152377 -8.39843,3.455079 l -23.7793,23.779292 c -2.50695,2.50439 -2.50695,6.68898 0,9.19336 2.50364,2.50364 6.68994,2.50408 9.19336,-0.002 l 22.98242,-22.98437 4.95117,4.94921 -87.60547,87.60547 c -0.0235,0.0227 9.2e-4,-0.003 -0.0254,0.0234 l -0.45312,0.45508 -12.61328,12.61133 c -1.41689,-1.87757 -3.07876,-3.54287 -4.95703,-4.95899 l 60.11132,-61.11328 c 2.50629,-2.50372 2.50688,-6.68875 0.002,-9.19336 -2.50364,-2.50363 -6.68995,-2.50598 -9.19336,0 l -0.0117,0.0117 -59.28125,60.28125 h -37.78125 c -3.54175,0 -6.5,2.95825 -6.5,6.5 0,3.54175 2.95825,6.5 6.5,6.5 h 12.58008 c -4.16709,4.50137 -6.73633,10.49857 -6.73633,17.08203 0,6.58272 2.56769,12.57884 6.73437,17.08008 H 231.5313 c 4.16666,-4.50132 6.73438,-10.49707 6.73437,-17.08008 0,-6.58352 -2.56872,-12.58045 -6.73632,-17.08203 h 5.40625 c 3.54175,0 6.5,-2.95825 6.5,-6.5 0,-3.54175 -2.95825,-6.5 -6.5,-6.5 h -30.625 L 105.65234,90.025391 c -4.6039,-4.606906 -12.190716,-4.606564 -16.796871,-0.002 L 82.316406,96.5625 c -4.605098,4.6051 -4.605098,12.19178 0,16.79688 l 77.328124,77.32617 H 89.259766 c -11.30764,-0.001 -20.572266,9.26291 -20.572266,20.57031 v 19.01758 c 0,11.30769 9.265626,20.57226 20.572266,20.57226 h 6.123046 l 5.144528,44.95118 c 0.37485,3.27345 3.20095,5.75976 6.45508,5.75976 0.23535,0 0.48252,-0.012 0.73828,-0.041 h 0.004 l 0.004,-0.002 c 3.51744,-0.40536 6.11544,-3.67944 5.71289,-7.19726 l -4.97657,-43.47071 H 403.53143 L 386.58416,398.5195 c -0.89323,7.78495 -7.40681,13.5918 -15.24218,13.5918 h -27.19141 v -92.05078 c 0,-9.06216 -7.43784,-16.5 -16.5,-16.5 -9.06216,0 -16.5,7.43784 -16.5,16.5 V 412.1113 H 272.5 v -92.05078 c 0,-9.06216 -7.43784,-16.5 -16.5,-16.5 -9.06216,0 -16.5,7.43784 -16.5,16.5 v 92.05078 h -38.65039 v -92.05078 c 0,-9.06216 -7.43784,-16.5 -16.5,-16.5 -9.06216,0 -16.5,7.43784 -16.5,16.5 V 412.1113 H 140.6582 c -7.8351,0 -14.34899,-5.80799 -15.24218,-13.5918 l -8.73829,-76.1543 -0.002,-0.002 c -0.405,-3.51429 -3.67809,-6.10519 -7.18359,-5.71484 h -0.008 -0.008 c -3.51722,0.40534 -6.12031,3.68025 -5.71484,7.20117 l 8.74023,76.15234 c 1.63883,14.27902 13.78325,25.10938 28.15625,25.10938 h 33.69141 20 H 246 h 20 51.65039 20 33.69141 c 14.37279,0 26.51634,-10.8299 28.15625,-25.10938 l 17.11914,-149.1582 h 6.12304 c 11.30741,0 20.57227,-9.26486 20.57227,-20.57227 v -19.01562 c 0,-11.30769 -9.26563,-20.57227 -20.57227,-20.57227 h -70.38476 l 77.32617,-77.32812 c 4.6051,-4.6051 4.6051,-12.18982 0,-16.794923 l -6.53711,-6.537109 c -2.30233,-2.303078 -5.35062,-3.455057 -8.39844,-3.455079 z M 97.253906,100.00977 197.85156,200.60938 l 0.0977,0.0977 c -1.87428,1.4146 -3.53483,3.07681 -4.94922,4.95117 l -13.06836,-13.06836 v -0.002 L 92.304688,104.96094 Z M 339.35547,203.68359 h 83.38476 c 4.21165,0 7.57227,3.36063 7.57227,7.57227 v 19.01758 c 0,4.21164 -3.36062,7.57226 -7.57227,7.57226 H 317.41602 c 4.16665,-4.50132 6.73437,-10.49902 6.73437,-17.08203 0,-0.61498 -0.0976,-1.14795 -0.14453,-1.72851 z m -250.095704,0.002 h 83.386714 l 15.34766,15.34961 c -0.0472,0.58117 -0.14453,1.11369 -0.14453,1.73046 0,6.58277 2.56765,12.57884 6.73437,17.08008 H 89.259766 c -4.211643,0 -7.572266,-3.36062 -7.572266,-7.57226 v -19.01563 c 0,-4.21164 3.360623,-7.57226 7.572266,-7.57226 z m 123.798824,4.86914 c 6.76869,0 12.20899,5.4403 12.20899,12.20898 0,6.76869 -5.4403,12.20899 -12.20899,12.20899 -6.76868,0 -12.20898,-5.4403 -12.20898,-12.20899 0,-6.76744 5.4406,-12.20898 12.20898,-12.20898 z m 85.88282,0.002 c 6.76868,0 12.20898,5.44031 12.20898,12.20898 0,6.76869 -5.4403,12.20899 -12.20898,12.20899 -6.76839,0 -12.20899,-5.44154 -12.20899,-12.20899 0,-6.76867 5.4403,-12.20898 12.20899,-12.20898 z M 184.34961,316.5625 c 1.96708,0 3.5,1.53292 3.5,3.5 v 92.04883 h -7 V 320.0625 c 0,-1.96708 1.53292,-3.5 3.5,-3.5 z m 71.65039,0 c 1.96708,0 3.5,1.53292 3.5,3.5 v 92.04883 h -7 V 320.0625 c 0,-1.96708 1.53292,-3.5 3.5,-3.5 z m 71.65039,0 c 1.96708,0 3.5,1.53292 3.5,3.5 v 92.04883 h -7 V 320.0625 c 0,-1.96708 1.53292,-3.5 3.5,-3.5 z" /></g>
</svg>
