<?xml version="1.0" encoding="UTF-8" standalone="no"?>
<!-- Created with Inkscape (http://www.inkscape.org/) -->

<svg
   width="1200"
   height="1200"
   viewBox="0 0 317.49999 317.5"
   version="1.1"
   id="svg1"
   inkscape:version="1.3.1 (91b66b0783, 2023-11-16)"
   sodipodi:docname="genix_logo3.svg"
   inkscape:export-filename="pwa-32x32.png"
   inkscape:export-xdpi="2.5599999"
   inkscape:export-ydpi="2.5599999"
   xmlns:inkscape="http://www.inkscape.org/namespaces/inkscape"
   xmlns:sodipodi="http://sodipodi.sourceforge.net/DTD/sodipodi-0.dtd"
   xmlns:xlink="http://www.w3.org/1999/xlink"
   xmlns="http://www.w3.org/2000/svg"
   xmlns:svg="http://www.w3.org/2000/svg">
  <sodipodi:namedview
     id="namedview1"
     pagecolor="#ffffff"
     bordercolor="#000000"
     borderopacity="0.25"
     inkscape:showpageshadow="2"
     inkscape:pageopacity="0.0"
     inkscape:pagecheckerboard="0"
     inkscape:deskcolor="#d1d1d1"
     inkscape:document-units="mm"
     inkscape:zoom="0.25323113"
     inkscape:cx="15.795846"
     inkscape:cy="126.36677"
     inkscape:window-width="1920"
     inkscape:window-height="1008"
     inkscape:window-x="0"
     inkscape:window-y="0"
     inkscape:window-maximized="1"
     inkscape:current-layer="layer1" />
  <defs
     id="defs1">
    <linearGradient
       xlink:href="#linearGradient20"
       id="linearGradient17"
       gradientUnits="userSpaceOnUse"
       gradientTransform="matrix(3.4072888,0,0,3.4072888,-151.35013,-283.55835)"
       x1="116.40834"
       y1="128.34016"
       x2="97.253143"
       y2="174.67014" />
    <linearGradient
       id="linearGradient20">
      <stop
         style="stop-color:#3999ef;stop-opacity:1;"
         offset="0"
         id="stop19" />
      <stop
         style="stop-color:#9f46f5;stop-opacity:1;"
         offset="1"
         id="stop20" />
    </linearGradient>
    <linearGradient
       xlink:href="#linearGradient18"
       id="linearGradient10"
       gradientUnits="userSpaceOnUse"
       x1="95.530525"
       y1="137.93761"
       x2="79.01783"
       y2="169.45323"
       gradientTransform="matrix(3.8410358,0,0,3.8410358,-51.765982,-480.6021)" />
    <linearGradient
       id="linearGradient18">
      <stop
         style="stop-color:#3797ef;stop-opacity:1;"
         offset="0"
         id="stop17" />
      <stop
         style="stop-color:#a752f6;stop-opacity:1;"
         offset="1"
         id="stop18" />
    </linearGradient>
    <linearGradient
       xlink:href="#linearGradient20"
       id="linearGradient8"
       gradientUnits="userSpaceOnUse"
       gradientTransform="matrix(0.93786527,0,0,0.92703219,8.6289296,-9.3461917)"
       x1="339.06979"
       y1="42.997372"
       x2="51.911629"
       y2="335.90811" />
  </defs>
  <g
     inkscape:label="Layer 1"
     inkscape:groupmode="layer"
     id="layer1">
    <rect
       fill="#1183ff"
       x="142.89995"
       y="100.24992"
       transform="rotate(-0.1)"
       width="2.4646082"
       height="2.4612999"
       rx="0.071126275"
       id="rect4-3"
       style="fill:#517bfa;fill-opacity:1;stroke-width:0.16541" />
    <path
       fill="#1183ff"
       d="m 154.11084,260.47577 q -4.54863,-0.32467 -9.47243,-0.75086 C 91.207983,255.13609 51.648815,208.38589 53.655845,156.36081 55.193943,116.35008 80.666372,81.12288 118.58436,66.540675 c 6.75267,-2.595707 14.27439,-4.051125 21.58978,-5.358277 q 7.18408,-1.279256 14.40564,-1.334895 a 0.34701018,0.35227225 0 0 0 0.34703,-0.352116 l -0.0281,-42.522988 q 0,-0.370918 0.37516,-0.370918 l 42.82292,0.03557 a 0.69402035,0.68600383 0 0 1 0.69401,0.685994 l 0.008,41.697926 a 0.91910813,0.91776191 0 0 0 0.91912,0.917742 l 24.90968,0.02539 q 0.49708,0 0.49708,0.500484 l -0.0376,25.205977 a 0.51582594,0.50059737 0 0 1 -0.51582,0.500483 l -25.35039,-0.01015 a 0.53458327,0.51913804 0 0 1 -0.53458,-0.519183 l 0.0376,-24.705393 q 0,-0.82501 -0.82534,-0.82501 h -42.35353 a 0.40328211,0.38935352 0 0 0 -0.40327,0.38921 l -0.008,42.513729 a 0.45955406,0.4542458 0 0 1 -0.4502,0.45425 c -34.30745,0.50047 -60.652193,29.40543 -56.703782,63.53874 3.301292,28.50625 27.807842,49.19761 56.534772,49.91144 a 0.65650575,0.64892255 0 0 1 0.63773,0.64892 l -0.008,41.95747 a 0.74091362,0.73235543 0 0 0 0.75967,0.73238 c 28.20162,-0.71384 51.11366,-20.59864 55.84989,-48.04808 1.51935,-8.779 0.80655,-20.04248 0.69401,-29.89684 q -0.0103,-0.27791 -0.28137,-0.27791 l -56.71273,-0.0741 q -0.53459,0 -0.53459,-0.52837 l -0.0281,-42.6804 q 0,-0.25966 0.27196,-0.25966 l 100.85806,0.0202 a 0.42203939,0.41716448 0 0 1 0.42202,0.41717 q -0.0204,31.25026 0,62.62099 0.0103,29.81332 -14.73386,53.92548 c -18.06328,29.54445 -51.10429,48.46523 -86.41491,48.1871 a 0.36576746,0.36154253 0 0 1 -0.36575,-0.37094 l 0.008,-41.9482 a 0.88159344,0.87141028 0 0 0 -0.82532,-0.87142 z"
       id="path4-6"
       style="fill:url(#linearGradient8);stroke-width:0.93243" />
  </g>
</svg>
