<?xml version="1.0" encoding="UTF-8"?>
<!-- Created with Inkscape (http://www.inkscape.org/) -->
<svg width="1200" height="1200" version="1.1" viewBox="0 0 317.5 317.5" xmlns="http://www.w3.org/2000/svg" xmlns:xlink="http://www.w3.org/1999/xlink">
 <g fill="#f9f9f9">
  <rect transform="rotate(-.1)" x="142.9" y="100.25" width="2.4646" height="2.4613" rx=".071126" stroke-width=".16541"/>
  <path d="m154.11 260.48q-4.5486-0.32467-9.4724-0.75086c-53.43-4.5888-92.99-51.339-90.983-103.36 1.5381-40.011 27.011-75.238 64.929-89.82 6.7527-2.5957 14.274-4.0511 21.59-5.3583q7.1841-1.2793 14.406-1.3349a0.34701 0.35227 0 0 0 0.34703-0.35212l-0.0281-42.523q0-0.37092 0.37516-0.37092l42.823 0.03557a0.69402 0.686 0 0 1 0.69401 0.68599l8e-3 41.698a0.91911 0.91776 0 0 0 0.91912 0.91774l24.91 0.02539q0.49708 0 0.49708 0.50048l-0.0376 25.206a0.51583 0.5006 0 0 1-0.51582 0.50048l-25.35-0.01015a0.53458 0.51914 0 0 1-0.53458-0.51918l0.0376-24.705q0-0.82501-0.82534-0.82501h-42.354a0.40328 0.38935 0 0 0-0.40327 0.38921l-8e-3 42.514a0.45955 0.45425 0 0 1-0.4502 0.45425c-34.307 0.50047-60.652 29.405-56.704 63.539 3.3013 28.506 27.808 49.198 56.535 49.911a0.65651 0.64892 0 0 1 0.63773 0.64892l-8e-3 41.957a0.74091 0.73236 0 0 0 0.75967 0.73238c28.202-0.71384 51.114-20.599 55.85-48.048 1.5194-8.779 0.80655-20.042 0.69401-29.897q-0.0103-0.27791-0.28137-0.27791l-56.713-0.0741q-0.53459 0-0.53459-0.52837l-0.0281-42.68q0-0.25966 0.27196-0.25966l100.86 0.0202a0.42204 0.41716 0 0 1 0.42202 0.41717q-0.0204 31.25 0 62.621 0.0103 29.813-14.734 53.925c-18.063 29.544-51.104 48.465-86.415 48.187a0.36577 0.36154 0 0 1-0.36575-0.37094l8e-3 -41.948a0.88159 0.87141 0 0 0-0.82532-0.87142z" stroke-width=".93243"/>
 </g>
</svg>
