<?xml version="1.0" encoding="UTF-8" standalone="no"?>
<!-- Created with Inkscape (http://www.inkscape.org/) -->

<svg
   width="97.5mm"
   height="56.497063mm"
   viewBox="0 0 97.5 56.497063"
   version="1.1"
   id="svg1"
   xmlns:xlink="http://www.w3.org/1999/xlink"
   xmlns="http://www.w3.org/2000/svg"
   xmlns:svg="http://www.w3.org/2000/svg">
  <defs
     id="defs1">
    <linearGradient
       xlink:href="#linearGradient25"
       id="linearGradient4"
       x1="123.06688"
       y1="133.28342"
       x2="95.121269"
       y2="179.16045"
       gradientUnits="userSpaceOnUse"
       gradientTransform="translate(11.209092,11.21842)" />
    <linearGradient
       id="linearGradient25">
      <stop
         style="stop-color:#80bfff;stop-opacity:1;"
         offset="0"
         id="stop24" />
      <stop
         style="stop-color:#c58fff;stop-opacity:1;"
         offset="1"
         id="stop25" />
    </linearGradient>
    <linearGradient
       xlink:href="#linearGradient25"
       id="linearGradient5"
       x1="100.24041"
       y1="136.73705"
       x2="79.289452"
       y2="173.56146"
       gradientUnits="userSpaceOnUse"
       gradientTransform="translate(11.209092,11.21842)" />
    <linearGradient
       id="linearGradient2"
       gradientTransform="matrix(0.83576392,0,0,1.1965101,11.209092,11.21842)"
       x1="101.22562"
       y1="98.131866"
       x2="46.989773"
       y2="163.71184"
       gradientUnits="userSpaceOnUse">
      <stop
         style="stop-color:#80bfff;stop-opacity:1;"
         offset="0"
         id="stop1" />
      <stop
         style="stop-color:#c58fff;stop-opacity:1;"
         offset="1"
         id="stop2" />
    </linearGradient>
  </defs>
  <g
     id="layer1"
     transform="translate(-47.453298,-133.52554)">
    <rect
       fill="#1183ff"
       x="81.902161"
       y="138.16296"
       transform="rotate(-0.1)"
       width="2.718487"
       height="2.714838"
       rx="0.078452982"
       id="rect4"
       style="fill:#98aeff;fill-opacity:1;stroke-width:0.182449" />
    <path
       style="-inkscape-font-specification:Squaremaze;fill:url(#linearGradient4);fill-opacity:1;stroke-width:2.15538"
       d="m 122.32186,173.46982 h -3.23307 l -9.69917,-11.13891 v 11.13891 h -3.23306 v -16.16531 h 3.20781 l 9.72442,11.44201 v -16.29161 h 8.08266 v 3.23307 h -4.84959 z m 4.84959,0 h -3.23306 v -16.16531 h 3.23306 z m 10.65901,-12.02295 3.08151,-4.14236 h 4.04133 l -5.12744,6.71871 z m 7.12284,12.02295 h -4.04133 l -4.04133,-5.40528 -4.04133,5.40528 h -4.04132 l 6.08725,-8.08266 -6.08725,-8.08265 h 4.04132 z"
       id="text1"
       aria-label="enix" />
    <path
       d="m 94.762062,163.77871 h 9.144508 v 3.21959 h -9.144508 z m -2.21008,6.43918 h 11.354588 v 3.2196 H 89.332392 v -16.09798 h 14.574178 v 3.2196 H 92.551982 Z"
       style="-inkscape-font-specification:Squaremaze;fill:url(#linearGradient5);fill-opacity:1;stroke-width:8.11236"
       id="path1-4" />
    <path
       fill="#1183ff"
       d="m 67.009602,181.52234 q -0.88488,-0.0639 -1.84274,-0.14778 c -10.3941,-0.90312 -18.08979,-10.10401 -17.69935,-20.34304 0.29921,-7.87449 5.25452,-14.80754 12.63093,-17.67746 1.31363,-0.51086 2.77687,-0.7973 4.19997,-1.05456 q 1.39756,-0.25177 2.80241,-0.26272 a 0.06750605,0.06933054 0 0 0 0.0675,-0.0693 l -0.005,-8.36893 q 0,-0.073 0.073,-0.073 l 8.33061,0.007 a 0.1350121,0.1350121 0 0 1 0.13502,0.13501 l 0.002,8.20655 a 0.17879981,0.1806243 0 0 0 0.17879,0.18062 l 4.84584,0.005 q 0.0967,0 0.0967,0.0985 l -0.007,4.96078 a 0.10034683,0.09852234 0 0 1 -0.10034,0.0985 l -4.93159,-0.002 a 0.10399581,0.10217132 0 0 1 -0.104,-0.10218 l 0.007,-4.86226 q 0,-0.16237 -0.16055,-0.16237 h -8.23939 a 0.07845298,0.07662849 0 0 0 -0.0785,0.0766 l -0.002,8.36711 a 0.08939991,0.08939991 0 0 1 -0.0876,0.0894 c -6.67397,0.0985 -11.79896,5.78727 -11.03085,12.50503 0.64222,5.6103 5.40961,9.68256 10.99801,9.82305 a 0.12771415,0.12771415 0 0 1 0.12407,0.12771 l -0.002,8.25763 a 0.14413454,0.14413454 0 0 0 0.14778,0.14414 c 5.48624,-0.14049 9.94346,-4.05401 10.86483,-9.45632 0.29557,-1.72779 0.1569,-3.94455 0.13501,-5.88398 q -0.002,-0.0547 -0.0547,-0.0547 l -11.03268,-0.0146 q -0.10399,0 -0.10399,-0.10399 l -0.006,-8.39991 q 0,-0.0511 0.0529,-0.0511 l 19.62054,0.004 a 0.08210195,0.08210195 0 0 1 0.0821,0.0821 q -0.004,6.15035 0,12.32441 0.002,5.86755 -2.86627,10.61305 c -3.51396,5.81464 -9.94163,9.53842 -16.81083,9.48368 a 0.07115502,0.07115502 0 0 1 -0.0712,-0.073 l 0.002,-8.25581 a 0.17150186,0.17150186 0 0 0 -0.16056,-0.1715 z"
       id="path4"
       style="fill:url(#linearGradient2);fill-opacity:1;stroke-width:0.182449" />
  </g>
</svg>
