<svg xmlns="http://www.w3.org/2000/svg" width="600" height="374.468" viewBox="0 0 18 11.234"><title>triangle_fill</title><path d="M0 0h18v11.234H0z" style="fill:none;fill-opacity:1;fill-rule:evenodd;stroke:#000;stroke-width:0;stroke-dasharray:none;stroke-opacity:.403546"/><path d="M24 0v24H0V0ZM12.593 23.258l-.011.002-.071.035-.02.004-.014-.004-.071-.035q-.016-.004-.024.005l-.004.01-.017.428.005.02.011.013.104.074.014.004.012-.004.104-.074.012-.016.004-.017-.017-.427q-.004-.016-.016-.018zm.265-.113-.013.002-.185.093-.01.01-.003.011.018.43.005.012.008.007.201.093q.019.005.029-.008l.004-.014-.034-.614q-.005-.018-.02-.022m-.715.002a.02.02 0 0 0-.027.006l-.006.014-.034.614q.001.018.017.024l.015-.002.201-.092.01-.009.004-.011.017-.43-.003-.013-.01-.008z" style="fill:none;fill-rule:evenodd;stroke:none;stroke-width:1" transform="translate(0 -6.679)"/><path fill="#09244b" d="M7.98 1.604c.454-.677 1.586-.677 2.04 0l6.772 10.134c.453.678-.113 1.525-1.019 1.525H2.227c-.906 0-1.472-.847-1.02-1.525z" style="fill:#fff;fill-rule:evenodd;stroke:#000;stroke-width:2.13410997;stroke-linecap:square;stroke-linejoin:miter;stroke-dasharray:none;stroke-opacity:.34;paint-order:stroke fill markers"/></svg>