<svg xmlns="http://www.w3.org/2000/svg" xmlns:xlink="http://www.w3.org/1999/xlink" xml:space="preserve" width="374.625" height="338.543" viewBox="0 0 374.625 338.543"><defs><linearGradient id="a"><stop offset="0" style="stop-color:#6568eb;stop-opacity:1"/><stop offset=".5" style="stop-color:#7139e9;stop-opacity:1"/><stop offset="1" style="stop-color:#9416e9;stop-opacity:1"/></linearGradient><linearGradient xlink:href="#a" id="b" x1="112.51" x2="399.49" y1="135.438" y2="376.242" gradientUnits="userSpaceOnUse"/></defs><path d="M414.746 86.568c-3.048 0-6.096 1.153-8.398 3.455l-23.78 23.78c-2.507 2.504-2.507 6.689 0 9.193 2.504 2.504 6.69 2.504 9.194-.002l22.982-22.984 4.951 4.949-87.605 87.605c-.024.023 0-.003-.026.024l-.453.455-12.613 12.611a25.2 25.2 0 0 0-4.957-4.959l60.111-61.113c2.507-2.504 2.507-6.689.002-9.193-2.503-2.504-6.69-2.506-9.193 0l-.012.011-59.281 60.282h-37.781c-3.542 0-6.5 2.958-6.5 6.5s2.958 6.5 6.5 6.5h12.58c-4.167 4.5-6.736 10.498-6.736 17.082 0 6.582 2.567 12.578 6.734 17.08H231.53c4.167-4.502 6.735-10.497 6.735-17.08 0-6.584-2.569-12.58-6.737-17.082h5.407c3.541 0 6.5-2.959 6.5-6.5s-2.959-6.5-6.5-6.5H206.31L105.652 90.025c-4.604-4.607-12.19-4.606-16.797-.002l-6.539 6.54c-4.605 4.605-4.605 12.191 0 16.796l77.329 77.327H89.26c-11.308-.001-20.573 9.262-20.573 20.57v19.017c0 11.308 9.266 20.573 20.573 20.573h6.123l5.144 44.95c.375 3.274 3.201 5.76 6.455 5.76q.355.002.739-.04h.004l.004-.002c3.517-.406 6.115-3.68 5.713-7.198l-4.977-43.47h295.066L386.584 398.52a15.284 15.284 0 0 1-15.242 13.591h-27.191v-92.05c0-9.063-7.438-16.5-16.5-16.5s-16.5 7.437-16.5 16.5v92.05H272.5v-92.05c0-9.063-7.438-16.5-16.5-16.5s-16.5 7.437-16.5 16.5v92.05h-38.65v-92.05c0-9.063-7.438-16.5-16.5-16.5s-16.5 7.437-16.5 16.5v92.05h-27.192a15.285 15.285 0 0 1-15.242-13.591l-8.738-76.155-.002-.002c-.405-3.514-3.678-6.105-7.184-5.715h-.016c-3.517.406-6.12 3.68-5.715 7.202l8.74 76.152c1.64 14.279 13.784 25.11 28.157 25.11h230.684c14.373 0 26.516-10.83 28.156-25.11l17.12-149.158h6.122c11.308 0 20.573-9.265 20.573-20.573v-19.015c0-11.308-9.266-20.572-20.573-20.572h-70.385l77.327-77.329c4.605-4.605 4.605-12.19 0-16.795l-6.537-6.537c-2.303-2.303-5.351-3.455-8.399-3.455M97.254 100.01l100.598 100.6.097.097a25.2 25.2 0 0 0-4.949 4.951l-13.068-13.068v-.002L92.305 104.96Zm242.101 103.674h83.385a7.535 7.535 0 0 1 7.572 7.572v19.017a7.535 7.535 0 0 1-7.572 7.573H317.416c4.167-4.502 6.734-10.5 6.734-17.082 0-.615-.097-1.148-.144-1.729zm-250.095.002h83.386l15.348 15.35c-.047.58-.144 1.113-.144 1.73 0 6.582 2.567 12.579 6.734 17.08H89.26a7.535 7.535 0 0 1-7.573-7.573v-19.015a7.535 7.535 0 0 1 7.573-7.572m123.799 4.869c6.768 0 12.209 5.44 12.209 12.209s-5.44 12.209-12.21 12.209a12.176 12.176 0 0 1-12.208-12.21c0-6.767 5.44-12.208 12.209-12.208m85.882.002c6.77 0 12.21 5.44 12.21 12.209s-5.44 12.209-12.21 12.209a12.177 12.177 0 0 1-12.209-12.21c0-6.768 5.44-12.208 12.21-12.208M184.35 316.563c1.967 0 3.5 1.532 3.5 3.5v92.048h-7v-92.048c0-1.968 1.533-3.5 3.5-3.5m71.65 0c1.967 0 3.5 1.532 3.5 3.5v92.048h-7v-92.048c0-1.968 1.533-3.5 3.5-3.5m71.65 0c1.967 0 3.5 1.532 3.5 3.5v92.048h-7v-92.048c0-1.968 1.533-3.5 3.5-3.5" style="fill:url(#b)" transform="translate(-68.688 -86.568)"/></svg>